<mxfile host="app.diagrams.net" modified="2023-11-09T09:26:32.556Z" agent="Mozilla/5.0 (X11; Ubuntu; Linux x86_64; rv:109.0) Gecko/20100101 Firefox/119.0" etag="baEJTi0LHHZbYhb4dh8_" version="22.1.0" type="device">
  <diagram name="Page-1" id="PGcFTo27rOfpDX2Z9XVu">
    <mxGraphModel dx="1388" dy="1511" grid="1" gridSize="10" guides="1" tooltips="1" connect="1" arrows="1" fold="1" page="1" pageScale="1" pageWidth="850" pageHeight="1100" math="0" shadow="0">
      <root>
        <mxCell id="0" />
        <mxCell id="1" parent="0" />
        <mxCell id="O2am2NvgsredMJi-C9vx-1" value="" style="sketch=0;outlineConnect=0;fontColor=#232F3E;gradientColor=none;fillColor=#ED7100;strokeColor=none;dashed=0;verticalLabelPosition=bottom;verticalAlign=top;align=center;html=1;fontSize=12;fontStyle=0;aspect=fixed;pointerEvents=1;shape=mxgraph.aws4.a1_instance;" vertex="1" parent="1">
          <mxGeometry x="160" y="120" width="48" height="48" as="geometry" />
        </mxCell>
        <mxCell id="O2am2NvgsredMJi-C9vx-5" value="VPC" style="sketch=0;outlineConnect=0;gradientColor=none;html=1;whiteSpace=wrap;fontSize=12;fontStyle=0;shape=mxgraph.aws4.group;grIcon=mxgraph.aws4.group_vpc;strokeColor=#879196;fillColor=none;verticalAlign=top;align=left;spacingLeft=30;fontColor=#879196;dashed=0;" vertex="1" parent="1">
          <mxGeometry x="-20" y="-280" width="650" height="440" as="geometry" />
        </mxCell>
        <mxCell id="O2am2NvgsredMJi-C9vx-6" value="" style="fillColor=none;strokeColor=#147EBA;dashed=1;verticalAlign=top;fontStyle=0;fontColor=#147EBA;whiteSpace=wrap;html=1;" vertex="1" parent="1">
          <mxGeometry x="20" y="-140" width="200" height="170" as="geometry" />
        </mxCell>
        <mxCell id="O2am2NvgsredMJi-C9vx-7" value="" style="rounded=1;arcSize=10;dashed=1;strokeColor=#F59D56;fillColor=none;gradientColor=none;dashPattern=8 4;strokeWidth=2;" vertex="1" parent="1">
          <mxGeometry x="10" y="-120" width="490" height="130" as="geometry" />
        </mxCell>
        <mxCell id="O2am2NvgsredMJi-C9vx-8" value="" style="fillColor=none;strokeColor=#147EBA;dashed=1;verticalAlign=top;fontStyle=0;fontColor=#147EBA;whiteSpace=wrap;html=1;" vertex="1" parent="1">
          <mxGeometry x="310" y="-140" width="180" height="170" as="geometry" />
        </mxCell>
        <mxCell id="O2am2NvgsredMJi-C9vx-10" value="" style="sketch=0;outlineConnect=0;fontColor=#232F3E;gradientColor=none;fillColor=#ED7100;strokeColor=none;dashed=0;verticalLabelPosition=bottom;verticalAlign=top;align=center;html=1;fontSize=12;fontStyle=0;aspect=fixed;pointerEvents=1;shape=mxgraph.aws4.a1_instance;" vertex="1" parent="1">
          <mxGeometry x="40" y="-79" width="48" height="48" as="geometry" />
        </mxCell>
        <mxCell id="O2am2NvgsredMJi-C9vx-11" value="" style="sketch=0;outlineConnect=0;fontColor=#232F3E;gradientColor=none;fillColor=#ED7100;strokeColor=none;dashed=0;verticalLabelPosition=bottom;verticalAlign=top;align=center;html=1;fontSize=12;fontStyle=0;aspect=fixed;pointerEvents=1;shape=mxgraph.aws4.a1_instance;" vertex="1" parent="1">
          <mxGeometry x="160" y="-79" width="40" height="40" as="geometry" />
        </mxCell>
        <mxCell id="O2am2NvgsredMJi-C9vx-12" value="" style="sketch=0;outlineConnect=0;fontColor=#232F3E;gradientColor=none;fillColor=#ED7100;strokeColor=none;dashed=0;verticalLabelPosition=bottom;verticalAlign=top;align=center;html=1;fontSize=12;fontStyle=0;aspect=fixed;pointerEvents=1;shape=mxgraph.aws4.a1_instance;" vertex="1" parent="1">
          <mxGeometry x="320" y="-80" width="48" height="48" as="geometry" />
        </mxCell>
        <mxCell id="O2am2NvgsredMJi-C9vx-13" value="" style="sketch=0;outlineConnect=0;fontColor=#232F3E;gradientColor=none;fillColor=#ED7100;strokeColor=none;dashed=0;verticalLabelPosition=bottom;verticalAlign=top;align=center;html=1;fontSize=12;fontStyle=0;aspect=fixed;pointerEvents=1;shape=mxgraph.aws4.a1_instance;" vertex="1" parent="1">
          <mxGeometry x="430" y="-80" width="48" height="48" as="geometry" />
        </mxCell>
        <mxCell id="O2am2NvgsredMJi-C9vx-23" value="" style="edgeStyle=orthogonalEdgeStyle;html=1;endArrow=block;elbow=vertical;startArrow=block;startFill=1;endFill=1;strokeColor=#545B64;rounded=0;" edge="1" parent="1" target="O2am2NvgsredMJi-C9vx-12">
          <mxGeometry width="100" relative="1" as="geometry">
            <mxPoint x="200" y="-56" as="sourcePoint" />
            <mxPoint x="300" y="-60" as="targetPoint" />
            <Array as="points">
              <mxPoint x="200" y="-60" />
              <mxPoint x="230" y="-60" />
              <mxPoint x="230" y="-180" />
              <mxPoint x="300" y="-180" />
              <mxPoint x="300" y="-56" />
            </Array>
          </mxGeometry>
        </mxCell>
        <mxCell id="O2am2NvgsredMJi-C9vx-24" value="" style="edgeStyle=orthogonalEdgeStyle;html=1;endArrow=block;elbow=vertical;startArrow=block;startFill=1;endFill=1;strokeColor=#545B64;rounded=0;entryX=0.833;entryY=0.353;entryDx=0;entryDy=0;entryPerimeter=0;" edge="1" parent="1" source="O2am2NvgsredMJi-C9vx-10" target="O2am2NvgsredMJi-C9vx-8">
          <mxGeometry width="100" relative="1" as="geometry">
            <mxPoint x="80" y="-200" as="sourcePoint" />
            <mxPoint x="180" y="-200" as="targetPoint" />
            <Array as="points">
              <mxPoint x="64" y="-200" />
              <mxPoint x="460" y="-200" />
            </Array>
          </mxGeometry>
        </mxCell>
        <mxCell id="O2am2NvgsredMJi-C9vx-28" value="" style="outlineConnect=0;dashed=0;verticalLabelPosition=bottom;verticalAlign=top;align=center;html=1;shape=mxgraph.aws3.application_load_balancer;fillColor=#F58534;gradientColor=none;" vertex="1" parent="1">
          <mxGeometry x="240" y="-210" width="50" height="42" as="geometry" />
        </mxCell>
        <mxCell id="O2am2NvgsredMJi-C9vx-30" value="" style="sketch=0;outlineConnect=0;fontColor=#232F3E;gradientColor=none;fillColor=#ED7100;strokeColor=none;dashed=0;verticalLabelPosition=bottom;verticalAlign=top;align=center;html=1;fontSize=12;fontStyle=0;aspect=fixed;pointerEvents=1;shape=mxgraph.aws4.auto_scaling2;" vertex="1" parent="1">
          <mxGeometry x="241" y="-110" width="48" height="48" as="geometry" />
        </mxCell>
        <mxCell id="O2am2NvgsredMJi-C9vx-31" value="" style="sketch=0;points=[[0,0,0],[0.25,0,0],[0.5,0,0],[0.75,0,0],[1,0,0],[0,1,0],[0.25,1,0],[0.5,1,0],[0.75,1,0],[1,1,0],[0,0.25,0],[0,0.5,0],[0,0.75,0],[1,0.25,0],[1,0.5,0],[1,0.75,0]];outlineConnect=0;fillColor=#cce5ff;strokeColor=#36393d;dashed=0;verticalLabelPosition=bottom;verticalAlign=top;align=center;html=1;fontSize=12;fontStyle=0;aspect=fixed;shape=mxgraph.aws4.resourceIcon;resIcon=mxgraph.aws4.dynamodb;" vertex="1" parent="1">
          <mxGeometry x="240" y="30" width="42" height="42" as="geometry" />
        </mxCell>
        <mxCell id="O2am2NvgsredMJi-C9vx-32" value="" style="sketch=0;points=[[0,0,0],[0.25,0,0],[0.5,0,0],[0.75,0,0],[1,0,0],[0,1,0],[0.25,1,0],[0.5,1,0],[0.75,1,0],[1,1,0],[0,0.25,0],[0,0.5,0],[0,0.75,0],[1,0.25,0],[1,0.5,0],[1,0.75,0]];points=[[0,0,0],[0.25,0,0],[0.5,0,0],[0.75,0,0],[1,0,0],[0,1,0],[0.25,1,0],[0.5,1,0],[0.75,1,0],[1,1,0],[0,0.25,0],[0,0.5,0],[0,0.75,0],[1,0.25,0],[1,0.5,0],[1,0.75,0]];outlineConnect=0;fontColor=#232F3E;fillColor=#E7157B;strokeColor=#ffffff;dashed=0;verticalLabelPosition=bottom;verticalAlign=top;align=center;html=1;fontSize=12;fontStyle=0;aspect=fixed;shape=mxgraph.aws4.resourceIcon;resIcon=mxgraph.aws4.cloudwatch_2;" vertex="1" parent="1">
          <mxGeometry x="558" y="-62" width="40" height="40" as="geometry" />
        </mxCell>
        <mxCell id="O2am2NvgsredMJi-C9vx-33" value="" style="sketch=0;points=[[0,0,0],[0.25,0,0],[0.5,0,0],[0.75,0,0],[1,0,0],[0,1,0],[0.25,1,0],[0.5,1,0],[0.75,1,0],[1,1,0],[0,0.25,0],[0,0.5,0],[0,0.75,0],[1,0.25,0],[1,0.5,0],[1,0.75,0]];outlineConnect=0;fontColor=#232F3E;fillColor=#7AA116;strokeColor=#ffffff;dashed=0;verticalLabelPosition=bottom;verticalAlign=top;align=center;html=1;fontSize=12;fontStyle=0;aspect=fixed;shape=mxgraph.aws4.resourceIcon;resIcon=mxgraph.aws4.s3;" vertex="1" parent="1">
          <mxGeometry x="560" y="-130" width="38" height="38" as="geometry" />
        </mxCell>
        <mxCell id="O2am2NvgsredMJi-C9vx-34" value="&lt;font style=&quot;font-size: 7px;&quot;&gt;Amazon Cloudwatch&lt;/font&gt;" style="rounded=1;whiteSpace=wrap;html=1;" vertex="1" parent="1">
          <mxGeometry x="554" y="-20" width="66" height="10" as="geometry" />
        </mxCell>
        <mxCell id="O2am2NvgsredMJi-C9vx-35" value="" style="sketch=0;outlineConnect=0;fontColor=#232F3E;gradientColor=none;fillColor=#DD344C;strokeColor=none;dashed=0;verticalLabelPosition=bottom;verticalAlign=top;align=center;html=1;fontSize=12;fontStyle=0;aspect=fixed;pointerEvents=1;shape=mxgraph.aws4.encrypted_data;" vertex="1" parent="1">
          <mxGeometry x="560" y="-208" width="31.79" height="40" as="geometry" />
        </mxCell>
        <mxCell id="O2am2NvgsredMJi-C9vx-40" value="&lt;font style=&quot;font-size: 7px;&quot;&gt;Amazon S3 bucket&lt;br&gt;&lt;/font&gt;" style="rounded=1;whiteSpace=wrap;html=1;arcSize=20;" vertex="1" parent="1">
          <mxGeometry x="543.89" y="-91" width="64" height="12" as="geometry" />
        </mxCell>
        <mxCell id="O2am2NvgsredMJi-C9vx-41" value="&lt;font style=&quot;font-size: 7px;&quot;&gt;IAM&lt;/font&gt;" style="rounded=1;whiteSpace=wrap;html=1;" vertex="1" parent="1">
          <mxGeometry x="550.89" y="-160" width="50" height="10" as="geometry" />
        </mxCell>
        <mxCell id="O2am2NvgsredMJi-C9vx-42" value="&lt;font style=&quot;font-size: 7px;&quot;&gt;Amazon DynamoDB&lt;br&gt;&lt;/font&gt;" style="rounded=1;whiteSpace=wrap;html=1;" vertex="1" parent="1">
          <mxGeometry x="224" y="75" width="66" height="10" as="geometry" />
        </mxCell>
        <mxCell id="O2am2NvgsredMJi-C9vx-45" value="&lt;font style=&quot;font-size: 7px;&quot;&gt;Amazon EC2 Autoscaling&lt;br&gt;&lt;/font&gt;" style="rounded=1;whiteSpace=wrap;html=1;" vertex="1" parent="1">
          <mxGeometry x="228" y="-60" width="82" height="20" as="geometry" />
        </mxCell>
        <mxCell id="O2am2NvgsredMJi-C9vx-46" value="&lt;font style=&quot;font-size: 6px;&quot;&gt;Amazon EC2 Instance&lt;br&gt;&lt;/font&gt;" style="rounded=1;whiteSpace=wrap;html=1;" vertex="1" parent="1">
          <mxGeometry x="421" y="-22" width="66" height="10" as="geometry" />
        </mxCell>
        <mxCell id="O2am2NvgsredMJi-C9vx-47" value="&lt;font style=&quot;font-size: 6px;&quot;&gt;Amazon EC2 Instance&lt;br&gt;&lt;/font&gt;" style="rounded=1;whiteSpace=wrap;html=1;" vertex="1" parent="1">
          <mxGeometry x="310" y="-22" width="66" height="10" as="geometry" />
        </mxCell>
        <mxCell id="O2am2NvgsredMJi-C9vx-48" value="&lt;font style=&quot;font-size: 7px;&quot;&gt;Amazon Cloudwatch&lt;/font&gt;" style="rounded=1;whiteSpace=wrap;html=1;" vertex="1" parent="1">
          <mxGeometry x="232" y="-160" width="66" height="10" as="geometry" />
        </mxCell>
        <mxCell id="O2am2NvgsredMJi-C9vx-49" value="&lt;font style=&quot;font-size: 6px;&quot;&gt;Amazon EC2 Instance&lt;br&gt;&lt;/font&gt;" style="rounded=1;whiteSpace=wrap;html=1;" vertex="1" parent="1">
          <mxGeometry x="151" y="-31" width="66" height="10" as="geometry" />
        </mxCell>
        <mxCell id="O2am2NvgsredMJi-C9vx-50" value="&lt;font style=&quot;font-size: 6px;&quot;&gt;Amazon EC2 Instance&lt;br&gt;&lt;/font&gt;" style="rounded=1;whiteSpace=wrap;html=1;" vertex="1" parent="1">
          <mxGeometry x="32" y="-22" width="66" height="10" as="geometry" />
        </mxCell>
        <mxCell id="O2am2NvgsredMJi-C9vx-51" value="&lt;font style=&quot;font-size: 10px;&quot;&gt;Availlabilty Zone&lt;br&gt;&lt;/font&gt;" style="rounded=1;whiteSpace=wrap;html=1;" vertex="1" parent="1">
          <mxGeometry x="390" y="-260" width="80" height="20" as="geometry" />
        </mxCell>
        <mxCell id="O2am2NvgsredMJi-C9vx-56" value="&lt;font style=&quot;font-size: 10px;&quot;&gt;Availlabilty Zone&lt;br&gt;&lt;/font&gt;" style="rounded=1;whiteSpace=wrap;html=1;" vertex="1" parent="1">
          <mxGeometry x="80" y="-260" width="80" height="20" as="geometry" />
        </mxCell>
      </root>
    </mxGraphModel>
  </diagram>
</mxfile>
